<?xml version="1.0" encoding="utf-8"?>
<!-- Generator: Adobe Illustrator 14.0.0, SVG Export Plug-In . SVG Version: 6.00 Build 43363)  -->
<!DOCTYPE svg PUBLIC "-//W3C//DTD SVG 1.1//EN" "http://www.w3.org/Graphics/SVG/1.1/DTD/svg11.dtd">
<svg version="1.1" id="green_x5F_bottom_x5F_left" xmlns="http://www.w3.org/2000/svg" xmlns:xlink="http://www.w3.org/1999/xlink"
	 x="0px" y="0px" width="608.5px" height="389.5px" viewBox="0 690.5 608.5 389.5" enable-background="new 0 690.5 608.5 389.5"
	 xml:space="preserve">
<path id="green_x5F_bottom_x5F_left_1_" fill="#009742" d="M531.577,1009.545c-58.535-57.481-126.549-105.698-188.659-158.378
	c-34.469-29.235-69.503-58.848-108.247-77.77c-42.137-20.578-86.472-27.454-129.742-41.741
	c-33.836-11.173-67.307-26.976-101.38-33.724C2.365,697.699,1.183,697.5,0,697.287v160.401
	c13.971-12.459,52.783-43.396,95.833-45.521c54-2.667,92.494,30.271,65.333,88.666c-26.667,57.334-50.667,105.334-107.333,153.334
	c0,0,36-2.667,59.333-14.667s60-22.001,117.333-22.667c54.928-0.638,103.117-1.267,102.374,63.167h267.872
	C578.34,1055.844,554.305,1031.862,531.577,1009.545z"/>
</svg>
