<?xml version="1.0" encoding="utf-8"?>
<!-- Generator: Adobe Illustrator 14.0.0, SVG Export Plug-In . SVG Version: 6.00 Build 43363)  -->
<!DOCTYPE svg PUBLIC "-//W3C//DTD SVG 1.1//EN" "http://www.w3.org/Graphics/SVG/1.1/DTD/svg11.dtd">
<svg version="1.1" id="Layer_1" xmlns="http://www.w3.org/2000/svg" xmlns:xlink="http://www.w3.org/1999/xlink" x="0px" y="0px"
	 width="417.416px" height="613.906px" viewBox="662.584 466.094 417.416 613.906"
	 enable-background="new 662.584 466.094 417.416 613.906" xml:space="preserve">
<path id="orange_x5F_bottom_x5F_right" fill="#FF703D" d="M1025.129,469.713c-125.258,0-226.8,101.542-226.8,226.8
	c0,15.4,1.543,30.439,4.468,44.979c0.225,1.114,0.466,2.223,0.706,3.331c0.123,0.922,0.209,1.854,0.209,2.812
	c0,7.481-3.906,14.038-9.779,17.782c-1.204,0.602-2.404,1.212-3.598,1.834c-72.305,37.729-121.673,113.393-121.673,200.597
	c0,40.813,10.816,79.1,29.732,112.153H1080V916.613v-78.53V476.412C1062.428,472.045,1044.052,469.713,1025.129,469.713z"/>
</svg>
