<?xml version="1.0" encoding="utf-8"?>
<!-- Generator: Adobe Illustrator 14.0.0, SVG Export Plug-In . SVG Version: 6.00 Build 43363)  -->
<!DOCTYPE svg PUBLIC "-//W3C//DTD SVG 1.1//EN" "http://www.w3.org/Graphics/SVG/1.1/DTD/svg11.dtd">
<svg version="1.1" id="Layer_1" xmlns="http://www.w3.org/2000/svg" xmlns:xlink="http://www.w3.org/1999/xlink" x="0px" y="0px"
	 width="1118.562px" height="338.601px" viewBox="0 0 1118.562 338.601" enable-background="new 0 0 1118.562 338.601"
	 xml:space="preserve">
<path id="orange_x5F_top" fill="#FF703D" d="M1108.179,0H753.402h-87.846H451.469h-94.768H0
	c10.36,115.579,107.459,206.173,225.734,206.173c30.471,0,59.529-6.027,86.07-16.931c2.296-0.943,4.579-1.913,6.836-2.928
	c2.879-0.851,5.924-1.314,9.079-1.314c11.05,0,20.792,5.601,26.542,14.119c1.142,2.358,2.334,4.687,3.557,6.997
	C395.217,276.817,469.502,325,555.052,325c73.241,0,138.233-35.312,178.887-89.836c2.296-3.079,4.508-6.223,6.646-9.421
	c5.509-5.319,13.002-8.597,21.265-8.597c3.908,0,7.64,0.74,11.077,2.073c2.578,1.535,5.182,3.031,7.825,4.463
	c31.556,17.105,67.701,26.821,106.117,26.821c123.158,0,223-99.841,223-223C1109.868,18.19,1109.288,9.014,1108.179,0z"/>
</svg>
