<?xml version="1.0" encoding="utf-8"?>
<!-- Generator: Adobe Illustrator 14.0.0, SVG Export Plug-In . SVG Version: 6.00 Build 43363)  -->
<!DOCTYPE svg PUBLIC "-//W3C//DTD SVG 1.1//EN" "http://www.w3.org/Graphics/SVG/1.1/DTD/svg11.dtd">
<svg version="1.1" id="Layer_1" xmlns="http://www.w3.org/2000/svg" xmlns:xlink="http://www.w3.org/1999/xlink" x="0px" y="0px"
	 width="237.425px" height="279.423px" viewBox="842.575 800.577 237.425 279.423"
	 enable-background="new 842.575 800.577 237.425 279.423" xml:space="preserve">
<path id="yellow_x5F_bottom_x5F_right" fill="#FFCA00" d="M1071.394,847.145c-12.865-5.048-25.302-11.197-39.125-13.718
	c-6.579-1.198-10.339,1.161-13.588,6.389c-5.046,8.117-7.018,17.366-9.866,26.233c-7.97,24.803-15.488,49.752-23.018,74.694
	c-12.674,41.989-21.188,85.021-31.778,127.534c-0.971,3.896-1.883,7.809-3.345,11.723h76.803
	c3.743-16.175,7.498-32.347,11.301-48.508c7.322-31.127,13.099-62.597,22.31-93.312c7.354-24.518,16.633-48.648,18.417-74.575
	c0.07-1.017,0.28-2.022,0.331-3.038C1080.326,850.859,1080.279,850.632,1071.394,847.145z M955.69,960.496
	c1.787-16.43,0.879-32.952,1.478-49.427c1.058-29.108,4.374-58.046,6.092-87.101c0.12-2.029,0.098-4.066,0.132-6.103
	c0.101-5.993-2.539-9.396-8.738-10.389c-9.516-1.521-19.081-1.233-28.636-1.439c-4.301-0.092-6.566,2.662-7.98,6.389
	c-5.562,14.646-12.164,28.924-15.605,44.317c-0.307,1.373-0.549,2.837-1.993,3.607c-1.218,2.674-0.313,5.616-0.956,8.312
	c-6.546,27.467-13.192,54.91-19.813,82.359c-5.402,24.34-11.176,48.57-13.491,73.522c-1.753,18.9-8.021,36.959-12.047,55.453h96.075
	c-2.068-7.5-2.178-15.188-2.474-22.843C946.472,1024.617,952.193,992.648,955.69,960.496z"/>
</svg>
