<?xml version="1.0" encoding="utf-8"?>
<!-- Generator: Adobe Illustrator 14.0.0, SVG Export Plug-In . SVG Version: 6.00 Build 43363)  -->
<!DOCTYPE svg PUBLIC "-//W3C//DTD SVG 1.1//EN" "http://www.w3.org/Graphics/SVG/1.1/DTD/svg11.dtd">
<svg version="1.1" id="Layer_1" xmlns="http://www.w3.org/2000/svg" xmlns:xlink="http://www.w3.org/1999/xlink" x="0px" y="0px"
	 width="1203.247px" height="497.815px" viewBox="0 0 1203.247 497.815" enable-background="new 0 0 1203.247 497.815"
	 xml:space="preserve">
<path id="yellow_x5F_top_x5F_right" fill="#FFCA00" d="M815.045,0H767.87H533.193h-21.495H37.531
	C26.648,28.292,20.667,59.016,20.667,91.141c0,140.251,113.696,253.948,253.948,253.948c36.771,0,71.712-7.827,103.262-21.887
	c1.528-0.681,3.046-1.381,4.558-2.091c3.403-1.242,7.078-1.92,10.911-1.92c11.491,0,21.558,6.087,27.157,15.211
	c0.869,1.837,1.761,3.662,2.673,5.475c41.832,83.154,127.925,140.213,227.356,140.213c86.235,0,162.436-42.922,208.435-108.558
	c0.211-0.319,0.431-0.632,0.653-0.942c5.784-8.083,15.243-13.356,25.939-13.356c5.488,0,10.652,1.387,15.161,3.829
	c0.049,0.026,0.097,0.055,0.146,0.082c37.075,21.173,79.997,33.279,125.749,33.279c68.649,0,130.925-27.251,176.631-71.511V0
	H815.045z"/>
</svg>
