<?xml version="1.0" encoding="utf-8"?>
<!-- Generator: Adobe Illustrator 14.0.0, SVG Export Plug-In . SVG Version: 6.00 Build 43363)  -->
<!DOCTYPE svg PUBLIC "-//W3C//DTD SVG 1.1//EN" "http://www.w3.org/Graphics/SVG/1.1/DTD/svg11.dtd">
<svg version="1.1" id="Layer_1" xmlns="http://www.w3.org/2000/svg" xmlns:xlink="http://www.w3.org/1999/xlink" x="0px" y="0px"
	 width="653.332px" height="330.66px" viewBox="0 0 653.332 330.66" enable-background="new 0 0 653.332 330.66"
	 xml:space="preserve">
<path fill="#009742" d="M636.578,330.205c-58.535-57.482-126.549-105.699-188.66-158.379
	c-34.469-29.234-69.502-58.847-108.246-77.771c-42.137-20.576-86.472-27.451-129.742-41.738
	c-33.836-11.174-67.307-26.977-101.38-33.725c-33.754-6.686-66.935-4.25-100.582-8.061C5.312,10.23,2.656,9.879,0,9.504v68.689
	c16.038-11.895,57.933-39.795,99.834-41.367c53.333-2,96,26.668,81.333,74.668S128.5,247.494,50.5,310.828
	c0,0,20-1.332,29.333-4.666s20-2.668,47.333-15.334s59.333-21.334,125.333-21.334c63.722,0,108.176-6.203,117.768,61.166h266.771
	C636.886,330.509,636.73,330.355,636.578,330.205z"/>
</svg>
