<?xml version="1.0" encoding="utf-8"?>
<!-- Generator: Adobe Illustrator 14.0.0, SVG Export Plug-In . SVG Version: 6.00 Build 43363)  -->
<!DOCTYPE svg PUBLIC "-//W3C//DTD SVG 1.1//EN" "http://www.w3.org/Graphics/SVG/1.1/DTD/svg11.dtd">
<svg version="1.1" id="Layer_1" xmlns="http://www.w3.org/2000/svg" xmlns:xlink="http://www.w3.org/1999/xlink" x="0px" y="0px"
	 width="963.387px" height="84.432px" viewBox="0 0 963.387 84.432" enable-background="new 0 0 963.387 84.432"
	 xml:space="preserve">
<path fill="#009742" d="M951.646,84.431c-6.93-1.984-13.846-4.07-20.734-6.345c-33.836-11.173-67.309-26.977-101.381-33.725
	c-33.754-6.686-66.936-4.249-100.582-8.061c-32.6-3.692-65.359-13.214-98.063-20.19c-131.543-28.063-243.621,13.963-370.484,4.37
	c-2.147,1.005-4.138,2.647-6.473,2.92c-42.658,4.98-84.742,11.88-126.029,21.564c-29.627,6.948-58.613,15.692-86.533,26.743
	c-10.016,3.964-19.894,8.201-29.626,12.721L951.646,84.431L951.646,84.431z"/>
</svg>
