<?xml version="1.0" encoding="utf-8"?>
<!-- Generator: Adobe Illustrator 14.0.0, SVG Export Plug-In . SVG Version: 6.00 Build 43363)  -->
<!DOCTYPE svg PUBLIC "-//W3C//DTD SVG 1.1//EN" "http://www.w3.org/Graphics/SVG/1.1/DTD/svg11.dtd">
<svg version="1.1" id="Layer_1" xmlns="http://www.w3.org/2000/svg" xmlns:xlink="http://www.w3.org/1999/xlink" x="0px" y="0px"
	 width="229.5px" height="243.5px" viewBox="850.5 836.5 229.5 243.5" enable-background="new 850.5 836.5 229.5 243.5"
	 xml:space="preserve">
<path fill="#FFCA00" d="M1071.394,885.145c-12.865-5.048-25.302-11.197-39.125-13.718c-6.579-1.198-10.339,1.161-13.588,6.389
	c-5.046,8.117-7.019,17.366-9.866,26.233c-7.97,24.803-15.488,49.752-23.018,74.694c-10.067,33.354-17.512,67.368-25.456,101.257
	h75.977c0.82-3.503,1.636-7.006,2.459-10.508c7.323-31.127,13.1-62.598,22.311-93.312c7.354-24.518,16.633-48.648,18.417-74.575
	c0.069-1.017,0.279-2.022,0.331-3.038C1080.326,888.859,1080.279,888.632,1071.394,885.145z M963.391,855.867
	c0.102-5.993-2.539-9.396-8.738-10.389c-9.516-1.521-19.08-1.233-28.636-1.439c-4.3-0.092-6.567,2.662-7.981,6.389
	c-5.561,14.646-12.163,28.924-15.604,44.317c-0.307,1.373-0.549,2.837-1.993,3.607c-1.218,2.674-0.313,5.616-0.956,8.312
	c-6.546,27.467-13.192,54.91-19.813,82.359c-5.401,24.34-11.177,48.57-13.491,73.522c-0.546,5.887-1.537,11.691-2.755,17.453h84.211
	c0.583-27.34,5.104-54.357,8.058-81.504c1.787-16.431,0.879-32.952,1.478-49.427c1.058-29.108,4.375-58.047,6.093-87.101
	C963.379,859.939,963.356,857.901,963.391,855.867z"/>
</svg>
